<svg width="18" height="17" viewBox="0 0 18 17" fill="none" xmlns="http://www.w3.org/2000/svg">
<rect x="1.78497" width="14.2797" height="14.2797" fill="white"/>
<path d="M16.3979 0H1.41786C0.633662 0 0 0.633067 0 1.41607V15.5845C0 16.3651 0.633662 17 1.41786 17H16.3979C17.1785 17 17.8139 16.3657 17.8139 15.5845V1.41607C17.8133 0.633067 17.1779 0 16.3979 0ZM11.9741 5.04728C11.6058 4.8319 11.3137 4.66173 10.9466 4.66173C10.5872 4.66173 10.2802 4.75157 10.1231 4.9027C9.96605 5.05264 9.88811 5.34299 9.88811 5.77198V6.40683H11.8093L11.3934 8.17276H9.88811V14.0405H7.47483V8.17276H6.34852V6.40683H7.47602V5.73271C7.47602 5.02289 7.56111 4.59807 7.72889 4.24762C7.89609 3.89836 8.22036 3.50924 8.67136 3.28909C9.12176 3.06954 9.78815 2.95888 10.4777 2.95888C11.1846 2.95888 11.7367 3.19449 12.4138 3.38429L11.9741 5.04728Z" fill="#E7E7E7"/>
</svg>
