<svg width="100" height="24" viewBox="0 0 100 24" fill="none" xmlns="http://www.w3.org/2000/svg">
<circle cx="12" cy="12" r="12" fill="#E7E7E7"/>
<rect x="4.78503" y="3" width="14.2797" height="14.2797" fill="white"/>
<path d="M19.3979 3H4.41786C3.63366 3 3 3.63307 3 4.41607V18.5845C3 19.3651 3.63366 20 4.41786 20H19.3979C20.1785 20 20.8139 19.3657 20.8139 18.5845V4.41607C20.8133 3.63307 20.1779 3 19.3979 3ZM14.9741 8.04728C14.6058 7.8319 14.3137 7.66173 13.9466 7.66173C13.5872 7.66173 13.2802 7.75157 13.1231 7.9027C12.9661 8.05264 12.8881 8.34299 12.8881 8.77198V9.40683H14.8093L14.3934 11.1728H12.8881V17.0405H10.4748V11.1728H9.34852V9.40683H10.476V8.73271C10.476 8.02289 10.5611 7.59807 10.7289 7.24762C10.8961 6.89836 11.2204 6.50924 11.6714 6.28909C12.1218 6.06954 12.7881 5.95888 13.4777 5.95888C14.1846 5.95888 14.7367 6.19449 15.4138 6.38429L14.9741 8.04728Z" fill="#E7E7E7"/>
<circle cx="50" cy="12" r="12" fill="#E7E7E7"/>
<rect x="42.785" y="3" width="14.2797" height="14.2797" fill="white"/>
<path d="M57.3979 3H42.4179C41.6337 3 41 3.63307 41 4.41607V18.5845C41 19.3651 41.6337 20 42.4179 20H57.3979C58.1785 20 58.8139 19.3657 58.8139 18.5845V4.41607C58.8133 3.63307 58.1779 3 57.3979 3ZM52.9741 8.04728C52.6058 7.8319 52.3137 7.66173 51.9466 7.66173C51.5872 7.66173 51.2802 7.75157 51.1231 7.9027C50.9661 8.05264 50.8881 8.34299 50.8881 8.77198V9.40683H52.8093L52.3934 11.1728H50.8881V17.0405H48.4748V11.1728H47.3485V9.40683H48.476V8.73271C48.476 8.02289 48.5611 7.59807 48.7289 7.24762C48.8961 6.89836 49.2204 6.50924 49.6714 6.28909C50.1218 6.06954 50.7881 5.95888 51.4777 5.95888C52.1846 5.95888 52.7367 6.19449 53.4138 6.38429L52.9741 8.04728Z" fill="#E7E7E7"/>
<circle cx="88" cy="12" r="12" fill="#E7E7E7"/>
<rect x="80.785" y="3" width="14.2797" height="14.2797" fill="white"/>
<path d="M95.3979 3H80.4179C79.6337 3 79 3.63307 79 4.41607V18.5845C79 19.3651 79.6337 20 80.4179 20H95.3979C96.1785 20 96.8139 19.3657 96.8139 18.5845V4.41607C96.8133 3.63307 96.1779 3 95.3979 3ZM90.9741 8.04728C90.6058 7.8319 90.3137 7.66173 89.9466 7.66173C89.5872 7.66173 89.2802 7.75157 89.1231 7.9027C88.9661 8.05264 88.8881 8.34299 88.8881 8.77198V9.40683H90.8093L90.3934 11.1728H88.8881V17.0405H86.4748V11.1728H85.3485V9.40683H86.476V8.73271C86.476 8.02289 86.5611 7.59807 86.7289 7.24762C86.8961 6.89836 87.2204 6.50924 87.6714 6.28909C88.1218 6.06954 88.7881 5.95888 89.4777 5.95888C90.1846 5.95888 90.7367 6.19449 91.4138 6.38429L90.9741 8.04728Z" fill="#E7E7E7"/>
</svg>
